<svg id="Capa_1" enable-background="new 0 0 511.91 511.91" height="512" viewBox="0 0 511.91 511.91" width="512" xmlns="http://www.w3.org/2000/svg"><g><g><path d="m511.91 154.768h-197.372l-6 148.187 6 193.631.011.02z" fill="#fd6717"/><path d="m185.492 154.768v118.303l129.046 223.515v-341.818z" fill="#ff8c00"/></g><path d="m251.048 255.455h30v30h-30z" fill="#fd6717"/><g><g><path d="m394.72 357.141-82.159-142.304-115.201-28.615-10 92.795 10 78.124z" fill="#fdae02"/><path d="m82.16 214.837-82.16 142.304h197.36v-170.919z" fill="#fdcb02"/></g><g><path d="m197.36 15.304-4 116.218 4 83.222 115.201.093z" fill="#fdcb02"/><path d="m197.36 15.304-115.2 199.533 18.884-.092v31.157c0 26.555 21.604 48.158 48.158 48.158 26.555 0 48.159-21.604 48.159-48.158v-31.157z" fill="#fde023"/></g></g></g></svg>